<?xml version="1.0" encoding="UTF-8" standalone="no"?>
<!-- Created with Inkscape (http://www.inkscape.org/) -->

<svg
   width="1920"
   height="1080"
   viewBox="0 0 1920 1080"
   version="1.1"
   id="svg5"
   xml:space="preserve"
   inkscape:version="1.2.2 (732a01da63, 2022-12-09)"
   sodipodi:docname="toolkit.svg"
   xmlns:inkscape="http://www.inkscape.org/namespaces/inkscape"
   xmlns:sodipodi="http://sodipodi.sourceforge.net/DTD/sodipodi-0.dtd"
   xmlns="http://www.w3.org/2000/svg"
   xmlns:svg="http://www.w3.org/2000/svg"><sodipodi:namedview
     id="namedview7"
     pagecolor="#ffffff"
     bordercolor="#000000"
     borderopacity="0.25"
     inkscape:showpageshadow="2"
     inkscape:pageopacity="0.0"
     inkscape:pagecheckerboard="0"
     inkscape:deskcolor="#d1d1d1"
     inkscape:document-units="px"
     showgrid="false"
     inkscape:zoom="0.37222221"
     inkscape:cx="1178.0597"
     inkscape:cy="600.44778"
     inkscape:window-width="1920"
     inkscape:window-height="991"
     inkscape:window-x="-9"
     inkscape:window-y="-9"
     inkscape:window-maximized="1"
     inkscape:current-layer="layer1"
     showguides="false" /><defs
     id="defs2" /><g
     inkscape:label="Calque 1"
     inkscape:groupmode="layer"
     id="layer1"><g
       id="g19641"
       inkscape:label="Marteau"
       transform="matrix(0.6948476,0,0,0.6948476,583.73009,-175.81539)"><path
         style="fill:#525856;fill-opacity:1;stroke:none;stroke-width:0.662684"
         d="m 1497.4306,400.83458 114.4563,106.38263 28.1019,-27.54551 -73.6945,-71.23837 c -1.477,-1.42779 -10.9861,10.38325 -15.1975,10.4483 -7.6415,4.25583 -28.8646,-14.12437 -46.5424,-26.59566 -5.2858,1.33894 -6.9023,3.41141 -7.1238,8.54861 z"
         id="path6316"
         sodipodi:nodetypes="cccsccc" /><path
         style="opacity:1;fill:#241612;fill-opacity:1;stroke:none;stroke-width:0.662684"
         d="m 1497.668,400.83457 c -0.883,1.50392 -1.1983,3.00785 -1.1873,4.51177 l 108.0449,104.7204 7.5988,-3.08699 z"
         id="path6381"
         sodipodi:nodetypes="ccccc" /><path
         style="opacity:1;fill:#be8242;fill-opacity:1;stroke:none;stroke-width:0.662684"
         d="M 1540.7056,445.38001 1252.612,730.74629 c 9.9879,21.10263 21.1351,29.4538 32.9104,30.89552 l 284.1045,-288.80598 z"
         id="path9206"
         sodipodi:nodetypes="ccccc" /><path
         style="opacity:1;fill:#803611;fill-opacity:1;stroke:none;stroke-width:0.662684"
         d="M 1376.1941,607.83584 1252.612,730.74629 c 9.9879,21.10263 21.1351,29.4538 32.9104,30.89552 l 131.601,-133.69746 z"
         id="path9208"
         sodipodi:nodetypes="ccccc" /></g><g
       id="g6221"
       inkscape:label="Boite à outils"
       transform="matrix(1.8414444,0,0,1.8414444,-111.67399,-76.599091)"><g
         id="g6205"
         inkscape:label="Derrière"
         style="display:inline"><path
           style="display:inline;fill:#be8242;fill-opacity:1;stroke-width:0.662684"
           d="m 443.89311,458.93188 v -28.20896 h 274.70146 v 43.65672"
           id="path1693"
           sodipodi:nodetypes="cccc" /><path
           style="display:inline;fill:#d5aa7a;fill-opacity:1;stroke-width:0.662684"
           d="m 443.10267,430.99215 5.22415,-3.79938 h 267.5254 l 2.6121,4.2743 z"
           id="path2862"
           sodipodi:nodetypes="ccccc" /></g><g
         id="g6201"
         inkscape:label="Devant"
         style="display:inline"><path
           style="display:inline;fill:#ab7743;fill-opacity:1;stroke-width:0.662684"
           d="m 398.55729,490.83486 18.47015,-189.40299 8.42927,-1.9573 c 1.96918,-3.07206 15.64263,-1.37785 17.64596,19.41999 v 22.16418 l 5.22415,86.13403 -0.068,43.15702"
           id="path3278"
           sodipodi:nodetypes="ccccccc" /><path
           style="display:inline;fill:#ab7743;fill-opacity:1;stroke-width:0.662684"
           d="m 765.57502,490.83486 -18.4701,-189.40299 -8.4293,-1.9573 c -1.9692,-3.07206 -15.6426,-1.37785 -17.646,19.41999 v 22.16418 l -5.2241,86.13403 0.068,43.15702"
           id="path3280"
           sodipodi:nodetypes="ccccccc" /><path
           style="display:inline;fill:#d5aa7a;fill-opacity:1;stroke-width:0.662684"
           d="m 408.29609,457.53097 5.03732,-3.97223 335.14931,0.67165 5.3731,2.68656 z"
           id="path857"
           sodipodi:nodetypes="ccccc" /><path
           style="display:inline;fill:#b57f4b;fill-opacity:1;stroke-width:7.26743"
           d="m 404.49669,457.25277 352.01193,-0.67164 -0.6716,61.79104 H 404.16087 Z"
           id="path7290"
           sodipodi:nodetypes="ccccc" /><path
           style="display:inline;fill:#d5aa7a;fill-opacity:1;stroke-width:0.662684"
           d="m 399.90057,521.6455 5.03732,-3.97223 350.93293,0.67165 5.3731,2.68656 z"
           id="path3282"
           sodipodi:nodetypes="ccccc" /><path
           style="display:inline;fill:#b57f4b;fill-opacity:1;stroke-width:7.26743"
           d="m 403.54685,521.39456 356.76107,-0.67164 -0.6716,61.79104 H 403.21103 Z"
           id="path7292"
           sodipodi:nodetypes="ccccc" /><path
           style="fill:#d5aa7a;fill-opacity:1;stroke:none;stroke-width:0.662684"
           d="m 754.41432,583.67972 h 13.7728 V 452.83858 l -10.6858,-136.54021 c -4.0244,-16.22334 -8.9536,-19.49847 -25.2896,-17.92833 13.1144,8.39503 11.0796,17.02172 13.5844,27.07303 l 8.0597,130.46641 z"
           id="path7350"
           sodipodi:nodetypes="cccccc" /><path
           style="fill:#d5aa7a;fill-opacity:1;stroke:none;stroke-width:0.662684"
           d="m 406.80542,583.67972 h -13.7728 V 452.83858 l 10.6858,-136.54021 c 4.0244,-16.22334 8.9536,-19.49847 25.2896,-17.92833 -13.1144,8.39503 -11.0796,17.02172 -13.5844,27.07303 l -8.0597,130.46641 z"
           id="path9650"
           sodipodi:nodetypes="cccccc" /></g><path
         style="display:inline;fill:#be8242;fill-opacity:1;stroke:none;stroke-width:0.662684"
         d="m 731.01992,341.05874 c 5.6539,-3.11201 6.2505,-15.45883 0.6717,-20.8209 L 430.89891,319.5662 c -6.48343,6.03371 -5.88683,18.38053 -0.23293,21.49254"
         id="path9715"
         sodipodi:nodetypes="cccc"
         inkscape:label="Poignée" /></g><g
       id="g21965"
       inkscape:label="Tournevis"
       transform="matrix(1.7190292,0,0,1.7190292,42.070585,-96.431033)"><path
         style="opacity:1;fill:#abaab0;fill-opacity:1;stroke:none;stroke-width:0.662684"
         d="m 531.94031,190.57836 -122.07089,-0.33582 c -5.77508,-1.04836 -11.5834,-1.86396 -17.79851,0.16791 v 5.29716 c 6.21511,2.03187 12.02343,1.21627 17.79851,0.16791 l 122.07089,-0.33582"
         id="path19678"
         sodipodi:nodetypes="cccccc" /><path
         style="opacity:1;fill:#803611;fill-opacity:1;stroke:none;stroke-width:0.662684"
         d="m 534.45897,178.15299 c 14.2527,8.09908 34.00629,5.19637 54.90672,0 21.34863,-7.20754 41.50563,-3.92864 60.61567,8.56343 1.41311,4.78348 1.27191,9.30791 0,13.64388 -19.11004,12.49207 -39.26704,15.77097 -60.61567,8.56343 -20.90043,-5.19637 -40.65402,-8.09908 -54.90672,0 -3.00047,-8.99356 -5.36084,-18.25663 0,-30.77074 z"
         id="path19682"
         sodipodi:nodetypes="ccccccc" /></g><g
       id="g31553"
       inkscape:label="Clé"
       transform="matrix(-0.55559015,0,0,0.55559015,885.58533,466.46333)"><path
         id="circle22059"
         style="opacity:1;fill:#949398;fill-opacity:1;stroke:none;stroke-width:0.749018"
         d="m 1230.5234,-642.08061 -19.7988,17.74663 5.75,-1.37891 10.6602,-7.89453 11.8711,5.92383 13.2402,0.80468 5.2871,12.16797 9.625,9.12891 -3.7715,12.7168 1.5059,13.18164 -11.0645,7.31836 -7.3183,11.06445 -13.1797,-1.50586 -12.7188,3.77148 -9.1289,-9.625 -12.166,-5.28711 -0.8066,-13.24023 -5.9239,-11.87109 7.8946,-10.66211 1.455,-6.06446 -23.4804,22.83789 c 0,28.75695 18.5622,49.93121 47.3191,49.93121 28.757,0 56.8196,-21.17426 56.8196,-49.93121 0,-28.75694 -23.3134,-49.13334 -52.0704,-49.13334 z"
         sodipodi:nodetypes="cccccccccccccccccccccssc" /><path
         id="path31306"
         style="opacity:1;fill:#949398;fill-opacity:1;stroke:none;stroke-width:0.662684"
         d="m 1218.405,-645.02535 -10.6624,7.89466 -12.8997,3.09275 -3.093,12.89909 -9.2855,11.81245 6.9656,11.29603 1.1537,14.39039 3.163,0.86467 -0.8419,-13.20701 -5.3779,-10.77921 7.1674,-9.67952 2.809,-11.71423 11.7143,-2.80884 9.681,-7.16784 10.7786,5.3773 12.0231,0.7325 4.8005,11.04797 8.7395,8.28835 -3.4245,11.54956 1.3664,11.96785 2.9786,-1.93439 -1.5055,-13.17921 3.7714,-12.71927 -9.6257,-9.12873 -5.2846,-12.1666 -13.2427,-0.80631 z"
         transform="matrix(1.0248847,0,0,1.0318984,-20.955113,29.366253)"
         sodipodi:nodetypes="ccccccccccccccccccccccccccc" /><path
         style="opacity:1;fill:#949398;fill-opacity:1;stroke:none;stroke-width:0.662684"
         d="m 606.71347,-198.75506 4.98668,4.2743 39.65603,-39.65602 c 41.12222,-2.7497 44.0852,18.18566 49.6294,37.51887 l 12.58544,-27.07058 -70.76344,-35.61918 z"
         id="path22119"
         sodipodi:nodetypes="ccccccc" /><path
         style="opacity:1;fill:#949398;fill-opacity:1;stroke:none;stroke-width:0.662684"
         d="m 661.09209,-150.55043 8.07368,4.74923 c 28.40476,-9.37492 54.59596,-14.27621 72.05406,-36.78962 8.25303,-19.06284 1.26322,-36.03836 22.45552,-59.14472 l 422.68105,-284.47857 c 18.8386,-12.89868 37.2022,-15.35253 56.5157,-19.23436 l -53.3945,-6.6411 -458.05967,297.53732 -24.85075,73.8806 z"
         id="path22125"
         sodipodi:nodetypes="cccccccccc" /><path
         style="opacity:1;fill:#abaab0;fill-opacity:1;stroke:none;stroke-width:0.662684"
         d="m 667.61196,-279.40299 c 28.05377,5.84126 49.17099,-3.98313 68.50747,-12.08955 L 1153.8806,-570.2239 c 15.6533,-13.02617 25.8389,-22.80956 32.7426,-34.08582 -1.3509,40.9409 20.1612,45.28592 50.709,52.55597 -12.7201,2.30074 -29.1798,6.55512 -47.1829,15.11194 l -425.82092,284.10449 c -15.27841,10.26579 -22.49519,26.44319 -25.52239,47.68657"
         id="path22121"
         sodipodi:nodetypes="cccccccc" /><path
         style="opacity:1;fill:#a2a1a7;fill-opacity:1;stroke:none;stroke-width:0.662684"
         d="m 605.52616,-198.5176 c 2.8423,-24.31099 4.6543,-48.54838 24.69597,-74.0879 61.50935,-29.81502 121.97431,47.70644 107.8074,83.11143 -9.16616,19.62839 -44.9623,28.16915 -77.41236,37.9938 l 40.3684,-45.59256 c -7.41785,-39.71252 -31.75427,-41.20071 -52.71639,-42.74302 z"
         id="path22117"
         sodipodi:nodetypes="ccccccc" /><path
         id="path22057"
         style="opacity:1;fill:#a2a1a7;fill-opacity:1;stroke:none;stroke-width:0.662684"
         d="m 1230.5234,-643.04492 a 46.067482,46.067482 0 0 0 -46.0664,46.06836 46.067482,46.067482 0 0 0 46.0664,46.0664 46.067482,46.067482 0 0 0 46.0684,-46.0664 46.067482,46.067482 0 0 0 -46.0684,-46.06836 z m -3.3886,9.4375 11.8711,5.92383 13.2402,0.80468 5.2871,12.16797 9.625,9.12891 -3.7715,12.7168 1.5059,13.18164 -11.0645,7.31836 -7.3183,11.06445 -13.1797,-1.50586 -12.7188,3.77148 -9.1289,-9.625 -12.166,-5.28711 -0.8066,-13.24023 -5.9239,-11.87109 7.8946,-10.66211 3.0937,-12.90039 12.9004,-3.0918 z" /></g><g
       id="g32091"
       inkscape:label="Scie"
       transform="translate(129.29754,993.25938)"><path
         id="path31630"
         style="display:inline;opacity:1;fill:#abaab0;fill-opacity:1;stroke:none;stroke-width:0.662684"
         d="m 1222.4367,-305.81862 0.4746,38.94531 444.5273,99.25782 7.5996,-16.62305 -48.918,-120.62891 z m 44.1484,11.63672 a 11.14239,6.8863759 0 0 1 11.1426,6.88672 11.14239,6.8863759 0 0 1 -11.1426,6.88672 11.14239,6.8863759 0 0 1 -11.1406,-6.88672 11.14239,6.8863759 0 0 1 11.1406,-6.88672 z" /><path
         id="path32093"
         style="opacity:1;fill:#5e280c;fill-opacity:1;stroke:none;stroke-width:0.676381"
         d="m 1706.604,-310.31389 c -44.4627,-0.2325 -113.125,1.71789 -113.125,1.71789 -10.5448,5.46707 -12.5003,7.64664 -14.67,11.88505 13.893,68.09226 52.1837,102.44362 113.3088,121.57199 25.1327,1.10895 74.194,5.72538 77.5999,2.30282 1.979,-1.9887 -2.5878,-4.97494 -22.6403,-15.5952 2.2851,-32.76811 -1.5005,-66.91246 -21.4745,-100.98678 0,0 15.8624,-11.46523 15.8967,-18.26146 0.01,-1.82361 -14.6854,-2.52862 -34.8956,-2.63431 z m -40.742,22.50333 c 7.2631,0.0488 13.9194,1.5786 20.3365,3.69085 13.7967,21.04708 19.2575,58.12308 28.2426,89.87596 -10.0621,13.51987 -22.4823,10.07969 -35.6824,1.04242 -6.4615,-12.67562 -5.1765,-21.14913 -12.2239,-36.97724 -3.7849,-10.95436 -6.034,-20.52821 -13.1348,-34.46213 -8.3746,-11.64341 -9.0843,-15.92397 -5.7599,-20.17395 6.557,-2.17633 12.5727,-3.03392 18.2219,-2.99591 z"
         sodipodi:nodetypes="scccscccssccccccs" /><path
         id="path31684"
         style="opacity:1;fill:#803611;fill-opacity:1;stroke:none;stroke-width:0.662684"
         d="m 1708.9347,-311.30495 c -44.1453,-0.22478 -114.793,2.34961 -114.793,2.34961 -10.4695,5.28562 -9.9355,8.99992 -12.0898,13.09766 13.7939,65.83233 51.8112,99.0436 112.5,117.53711 24.9533,1.07215 77.2023,6.33808 74.2168,2.68555 -1.5716,-1.92269 -8.935,-11.46764 -18.4707,-16.45508 2.2688,-31.68056 -2.6686,-63.77337 -22.5,-96.7168 0,0 15.7492,-13.3805 15.7832,-19.95117 0.01,-1.76309 -14.5805,-2.4447 -34.6465,-2.54688 z m -40.4512,21.61719 c 7.2113,0.0472 13.8201,1.52621 20.1914,3.56836 13.6982,20.34854 19.12,58.62909 28.041,89.32812 -9.9903,13.07115 -22.3218,9.74515 -35.4277,1.00782 -6.4154,-12.25493 -5.1396,-20.44721 -12.1367,-35.75 -3.7578,-10.59079 -5.9909,-19.84689 -13.041,-33.31836 -8.3148,-11.25697 -9.0195,-17.83053 -5.7188,-21.93946 6.5102,-2.1041 12.483,-2.93323 18.0918,-2.89648 z" /></g><g
       id="g34907"
       inkscape:label="Mètre"
       transform="matrix(-0.75410604,0,0,0.75410604,582.69144,294.95972)"><path
         style="display:inline;opacity:1;fill:#a2a1a7;fill-opacity:1;stroke:none;stroke-width:0.662684"
         d="m 162.11755,622.02428 -0.41978,25.94216 c 3.5724,-5.2434 6.37814,-12.29888 12.25746,-12.08956 v -27.95709 c -1.31125,7.3532 -7.47801,12.69924 -11.83768,14.10449 z"
         id="path32302"
         sodipodi:nodetypes="ccccc" /><path
         id="path34560"
         style="opacity:1;fill:#5e280c;fill-opacity:1;stroke:none;stroke-width:0.677907"
         d="m 578.16837,551.19712 c 0,52.17553 -42.29662,94.47215 -94.47215,94.47215 -24.51266,0 -66.08279,3.7185 -82.8728,-11.59151 -18.94775,-17.27754 -11.59936,-55.21777 -11.59936,-82.88064 0,-52.17553 42.29663,-94.47216 94.47216,-94.47216 52.17553,0 94.47215,42.29663 94.47215,94.47216 z"
         sodipodi:nodetypes="ssssss" /><path
         style="display:inline;opacity:1;fill:#d3bf10;fill-opacity:1;stroke:none;stroke-width:0.662684"
         d="M 396.08535,610.44824 H 174.05909 c -1.05261,9.0476 -6.25321,9.35861 -12.02656,12.14036 2.70882,1.04156 4.99781,2.24056 9.40446,2.64544 l 226.54805,1.83649"
         id="path32166"
         sodipodi:nodetypes="ccccc" /><path
         style="display:inline;opacity:1;fill:#eed918;fill-opacity:1;stroke:none;stroke-width:0.662684"
         d="M 396.08535,607.42585 H 174.05909 c -1.05261,9.0476 -6.33717,12.29704 -12.11052,15.07879 l 236.03647,1.5435"
         id="path34514"
         sodipodi:nodetypes="cccc" /><path
         style="opacity:1;fill:#a2a1a7;fill-opacity:1;stroke:none;stroke-width:0.662684"
         d="m 172.1594,614.31223 c 15.30479,2.64453 24.8834,1.15815 31.58234,4.51176 -0.31661,-0.15831 -0.63323,-0.31661 -0.94984,-0.47492 -1.72562,3.00951 -20.4186,1.90876 -36.33157,1.89969 z"
         id="path32304"
         sodipodi:nodetypes="ccccc" /><path
         id="path32159"
         style="opacity:1;fill:#803611;fill-opacity:1;stroke:none;stroke-width:0.662684"
         d="m 576.26868,557.12683 c 0,51.00391 -41.34683,92.35075 -92.35074,92.35075 -23.96222,0 -64.59888,3.635 -81.01186,-11.33122 -18.52227,-16.88957 -11.33889,-53.97784 -11.33889,-81.01953 0,-51.00391 41.34684,-92.35075 92.35075,-92.35075 51.00391,0 92.35074,41.34684 92.35074,92.35075 z"
         sodipodi:nodetypes="ssssss" /></g></g></svg>
