<?xml version="1.0" encoding="UTF-8" standalone="no"?>
<!-- Created with Inkscape (http://www.inkscape.org/) -->

<svg
   width="1920"
   height="1080"
   viewBox="0 0 1920 1080"
   version="1.1"
   id="svg5"
   xml:space="preserve"
   inkscape:version="1.2.2 (732a01da63, 2022-12-09)"
   sodipodi:docname="logo.svg"
   xmlns:inkscape="http://www.inkscape.org/namespaces/inkscape"
   xmlns:sodipodi="http://sodipodi.sourceforge.net/DTD/sodipodi-0.dtd"
   xmlns="http://www.w3.org/2000/svg"
   xmlns:svg="http://www.w3.org/2000/svg"><sodipodi:namedview
     id="namedview7"
     pagecolor="#ffffff"
     bordercolor="#000000"
     borderopacity="0.25"
     inkscape:showpageshadow="2"
     inkscape:pageopacity="0.0"
     inkscape:pagecheckerboard="0"
     inkscape:deskcolor="#d1d1d1"
     inkscape:document-units="px"
     showgrid="false"
     inkscape:zoom="0.37222221"
     inkscape:cx="1191.4926"
     inkscape:cy="-355.97016"
     inkscape:window-width="1920"
     inkscape:window-height="991"
     inkscape:window-x="-9"
     inkscape:window-y="-9"
     inkscape:window-maximized="1"
     inkscape:current-layer="layer1"
     showguides="true" /><defs
     id="defs2" /><g
     inkscape:label="Calque 1"
     inkscape:groupmode="layer"
     id="layer1"><rect
       style="fill:#000000;stroke:#ffffff;stroke-width:2.13793"
       id="rect2951"
       width="1920"
       height="1080"
       x="0"
       y="0" /><path
       id="path2402"
       style="display:inline;fill:#e4e4e4;fill-opacity:1"
       d="m 877.12656,-871.48012 c 2.8976,-0.0426 7.1241,3.03916 11.6051,8.46186 4.7405,5.73661 5.3403,7.84427 4.5176,15.87428 -1.0057,9.81587 -4.3295,20.25898 -10.1105,31.76652 -9.9238,19.75375 -20.3524,35.48555 -35.0385,52.85618 -11.1695,13.2111 -15.1044,19.40921 -17.9783,28.31879 l -2.6386,8.17982 9.9429,20.5 c 12.4377,25.6435 20.8214,46.76977 32.7391,82.5 6.384,19.13965 9.6962,30.70403 10.4669,36.54513 1.7268,13.08646 2.651,42.95846 2.8601,92.44694 0.1836,43.42933 0.2629,45.14245 2.286,49.32159 2.0886,4.31444 2.0915,4.46945 0.8224,44.50793 -1.889,59.59627 -0.6665,63.17683 5.0326,115.38368 h -4e-4 c 4.4029,40.3336 3.9221,47.37355 -4.2664,62.47662 -5.6588,10.43711 -9.7601,10.88556 -20.0014,2.18699 -10.978,-9.32432 -13.8612,-15.80171 -17.6545,-39.66361 -6.0826,-38.26228 -8.3761,-42.82922 -8.2441,-100.20527 0.1161,-50.51455 0.6686,-61.82756 3.2256,-66.04719 1.6625,-2.74366 1.8623,-5.73192 2.0053,-30 0.1419,-24.07077 -0.069,-28.0221 -1.9688,-36.95281 -4.0398,-18.98616 -10.1882,-34.35061 -19.6908,-49.20555 -6.4259,-10.0452 -17.1668,-22.56382 -18.5999,-21.67816 -0.4792,0.29616 -3.0418,4.89115 -5.6946,10.21109 -3.7857,7.59153 -4.7288,10.43771 -4.3835,13.22867 0.3282,2.6538 -0.6945,6.21166 -4.0307,14.02269 -8.79203,20.58404 -17.56233,49.05915 -21.62743,70.21901 -8.2073,42.72059 -8.3115,42.19869 -0.4779,113.40752 2.1874,19.88344 2.6449,93.95156 0.6394,103.5 -1.7778,8.46415 -6.9208,20.58941 -9.8616,23.25 -4.6943,4.24696 -8.7456,2.60289 -19.3755,-7.86295 -7.7312,-7.61189 -11.6861,-15.13647 -13.5661,-25.81076 -0.7339,-4.16696 -1.8168,-22.42629 -2.4065,-40.57629 -1.1539,-35.51902 -2.1501,-51.31341 -4.5724,-72.5 -7.3463,-64.25326 -6.0711,-78.86827 4.6161,-137.50956 1.9816,-10.87294 2.2023,-11.52484 4.9757,-14.69571 0.9622,-1.1 2.4697,-5.375 3.3502,-9.5 2.7009,-12.65339 4.2121,-18.94963 8.0407,-33.5 l 3.6838,-14 0.9948,-50.5 c 0.5472,-27.775 0.7205,-52.975 0.3852,-56 -0.9656,-8.70997 -3.2232,-15.42999 -8.5049,-25.31501 -7.0162,-13.13126 -7.3709,-15.59688 -6.0322,-41.93649 1.3865,-27.27809 2.1729,-32.53257 6.6641,-44.5236 8.8335,-23.58459 28.9911,-48.12373 51.74213,-62.98871 13.7551,-8.98727 38.5015,-18.84165 65.7363,-18.12489 m 101.9168,2.81145 v 654.06498 h 39.2227 c 172.00684,0 321.63964,-125.67994 323.87604,-318.79862 1.654,-203.94763 -137.1702,-336.62257 -330.63204,-335.26636 z m 46.13664,588.194 v -522.32303 c 132.2553,-33.64133 281.2309,113.91842 279.0511,267.28414 -12.5177,189.10342 -152.7062,286.25039 -279.0511,255.03889 z"
       inkscape:export-filename="..\img\logo.png"
       inkscape:export-xdpi="47.580002"
       inkscape:export-ydpi="47.580002" /></g></svg>
